<svg width="566" height="566" viewBox="0 0 566 566" fill="none" xmlns="http://www.w3.org/2000/svg">
<path fill-rule="evenodd" clip-rule="evenodd" d="M424.421 141.579C346.316 63.4738 219.684 63.4738 141.579 141.579C63.4738 219.683 63.4738 346.316 141.579 424.421C219.683 502.526 346.317 502.526 424.421 424.421C502.526 346.316 502.526 219.683 424.421 141.579ZM212.289 212.289C270.868 153.711 365.843 153.711 424.421 212.289C483 270.868 483 365.843 424.421 424.421C365.843 483 270.868 483 212.289 424.421C153.711 365.843 153.711 270.868 212.289 212.289ZM212.289 212.289C183 241.579 183 289.066 212.289 318.355C241.579 347.645 289.066 347.645 318.355 318.355C347.645 289.066 347.645 241.579 318.355 212.289C289.066 183 241.579 183 212.289 212.289ZM212.289 212.289C261.105 163.474 340.25 163.474 389.066 212.289C437.882 261.105 437.882 340.25 389.066 389.066C340.25 437.882 261.105 437.882 212.289 389.066C163.474 340.25 163.474 261.105 212.289 212.289ZM212.289 212.289C251.342 173.237 314.658 173.237 353.711 212.289C392.763 251.342 392.763 314.658 353.711 353.711C314.658 392.763 251.342 392.763 212.289 353.711C173.237 314.658 173.237 251.342 212.289 212.289ZM424.421 424.421C356.08 492.763 245.276 492.763 176.934 424.421C108.592 356.08 108.592 245.276 176.934 176.934C245.276 108.592 356.08 108.592 424.421 176.934C492.763 245.276 492.763 356.08 424.421 424.421Z" fill="url(#paint0_linear_1_36)"/>
<defs>
<linearGradient id="paint0_linear_1_36" x1="283.707" y1="58.14" x2="286.182" y2="508.921" gradientUnits="userSpaceOnUse">
<stop stop-color="#4DBAA0"/>
<stop offset="1" stop-color="#085B29"/>
</linearGradient>
</defs>
</svg>
